<?xml version="1.0" encoding="UTF-8"?>
<svg xmlns="http://www.w3.org/2000/svg" version="1.1" width="300" height="300" viewBox="0 0 300 300"><rect x="0" y="0" width="300" height="300" fill="#ffffff"/><g transform="scale(10.345)"><g transform="translate(0,0)"><path fill-rule="evenodd" d="M8 0L8 4L9 4L9 5L8 5L8 7L9 7L9 6L10 6L10 9L11 9L11 8L12 8L12 9L13 9L13 10L15 10L15 11L14 11L14 12L13 12L13 11L12 11L12 12L11 12L11 13L10 13L10 14L8 14L8 15L7 15L7 14L5 14L5 13L7 13L7 12L10 12L10 11L11 11L11 10L8 10L8 11L7 11L7 10L6 10L6 9L7 9L7 8L4 8L4 9L5 9L5 10L3 10L3 9L2 9L2 8L0 8L0 9L1 9L1 10L2 10L2 11L0 11L0 13L1 13L1 14L0 14L0 15L1 15L1 16L0 16L0 18L2 18L2 19L3 19L3 21L5 21L5 20L6 20L6 21L8 21L8 22L10 22L10 23L11 23L11 24L9 24L9 23L8 23L8 25L9 25L9 27L8 27L8 29L10 29L10 27L11 27L11 24L12 24L12 25L13 25L13 26L15 26L15 27L14 27L14 28L13 28L13 27L12 27L12 28L11 28L11 29L12 29L12 28L13 28L13 29L15 29L15 27L16 27L16 29L18 29L18 28L19 28L19 27L20 27L20 29L21 29L21 26L22 26L22 25L23 25L23 26L24 26L24 25L26 25L26 24L25 24L25 23L27 23L27 22L25 22L25 21L26 21L26 20L24 20L24 19L25 19L25 18L26 18L26 19L27 19L27 20L28 20L28 24L27 24L27 25L28 25L28 26L25 26L25 28L24 28L24 29L25 29L25 28L26 28L26 27L27 27L27 29L28 29L28 28L29 28L29 25L28 25L28 24L29 24L29 17L28 17L28 16L29 16L29 13L28 13L28 12L29 12L29 8L25 8L25 9L24 9L24 8L23 8L23 9L21 9L21 10L22 10L22 11L19 11L19 9L20 9L20 8L21 8L21 5L19 5L19 6L18 6L18 7L17 7L17 6L16 6L16 7L15 7L15 6L14 6L14 7L13 7L13 6L12 6L12 7L11 7L11 3L10 3L10 2L9 2L9 0ZM13 0L13 1L11 1L11 2L12 2L12 5L13 5L13 2L14 2L14 3L15 3L15 4L14 4L14 5L16 5L16 2L14 2L14 0ZM15 0L15 1L16 1L16 0ZM17 1L17 3L18 3L18 4L19 4L19 2L20 2L20 3L21 3L21 2L20 2L20 1ZM19 6L19 7L18 7L18 8L20 8L20 6ZM12 7L12 8L13 8L13 7ZM14 7L14 9L16 9L16 10L17 10L17 11L18 11L18 10L17 10L17 9L16 9L16 8L15 8L15 7ZM23 10L23 11L22 11L22 13L21 13L21 15L20 15L20 12L18 12L18 13L16 13L16 11L15 11L15 13L13 13L13 12L12 12L12 13L11 13L11 14L12 14L12 13L13 13L13 14L15 14L15 13L16 13L16 14L17 14L17 15L18 15L18 17L16 17L16 15L14 15L14 17L16 17L16 18L18 18L18 19L20 19L20 20L23 20L23 19L20 19L20 18L21 18L21 17L20 17L20 16L22 16L22 17L26 17L26 18L27 18L27 19L28 19L28 18L27 18L27 15L28 15L28 14L27 14L27 15L25 15L25 14L24 14L24 15L23 15L23 16L22 16L22 13L27 13L27 11L28 11L28 10ZM2 11L2 12L3 12L3 13L2 13L2 14L3 14L3 16L1 16L1 17L2 17L2 18L4 18L4 17L6 17L6 18L5 18L5 19L6 19L6 20L7 20L7 19L8 19L8 18L9 18L9 20L10 20L10 22L12 22L12 21L13 21L13 22L15 22L15 21L16 21L16 23L14 23L14 25L15 25L15 24L16 24L16 27L17 27L17 23L18 23L18 25L19 25L19 26L21 26L21 25L19 25L19 20L18 20L18 21L16 21L16 19L15 19L15 18L13 18L13 17L12 17L12 16L13 16L13 15L12 15L12 16L10 16L10 15L8 15L8 16L7 16L7 15L6 15L6 16L5 16L5 14L3 14L3 13L5 13L5 12L7 12L7 11L5 11L5 12L4 12L4 11ZM23 11L23 12L26 12L26 11ZM18 13L18 15L19 15L19 16L20 16L20 15L19 15L19 13ZM24 15L24 16L25 16L25 15ZM3 16L3 17L4 17L4 16ZM6 16L6 17L7 17L7 16ZM8 16L8 17L10 17L10 18L11 18L11 17L10 17L10 16ZM18 17L18 18L19 18L19 17ZM6 18L6 19L7 19L7 18ZM10 19L10 20L11 20L11 21L12 21L12 20L13 20L13 21L15 21L15 19L14 19L14 20L13 20L13 19L12 19L12 20L11 20L11 19ZM0 20L0 21L2 21L2 20ZM21 21L21 24L24 24L24 21ZM22 22L22 23L23 23L23 22ZM12 23L12 24L13 24L13 23ZM22 27L22 28L23 28L23 27ZM0 0L0 7L7 7L7 0ZM1 1L1 6L6 6L6 1ZM2 2L2 5L5 5L5 2ZM22 0L22 7L29 7L29 0ZM23 1L23 6L28 6L28 1ZM24 2L24 5L27 5L27 2ZM0 22L0 29L7 29L7 22ZM1 23L1 28L6 28L6 23ZM2 24L2 27L5 27L5 24Z" fill="#000000"/></g></g></svg>
