<?xml version="1.0" encoding="UTF-8"?>
<svg xmlns="http://www.w3.org/2000/svg" version="1.1" width="300" height="300" viewBox="0 0 300 300"><rect x="0" y="0" width="300" height="300" fill="#ffffff"/><g transform="scale(10.345)"><g transform="translate(0,0)"><path fill-rule="evenodd" d="M9 0L9 1L10 1L10 2L8 2L8 3L9 3L9 4L10 4L10 5L9 5L9 6L8 6L8 8L4 8L4 9L3 9L3 8L0 8L0 10L1 10L1 11L2 11L2 12L0 12L0 13L1 13L1 14L2 14L2 15L0 15L0 17L1 17L1 18L0 18L0 19L1 19L1 20L0 20L0 21L1 21L1 20L2 20L2 21L3 21L3 20L5 20L5 21L7 21L7 20L6 20L6 19L10 19L10 20L9 20L9 21L8 21L8 25L10 25L10 26L8 26L8 29L9 29L9 28L10 28L10 27L11 27L11 28L12 28L12 29L13 29L13 28L12 28L12 27L11 27L11 26L12 26L12 24L14 24L14 26L13 26L13 27L14 27L14 26L15 26L15 25L16 25L16 23L15 23L15 22L14 22L14 21L13 21L13 20L12 20L12 19L11 19L11 18L12 18L12 16L14 16L14 18L13 18L13 19L14 19L14 18L15 18L15 14L14 14L14 13L13 13L13 12L12 12L12 11L11 11L11 12L12 12L12 13L11 13L11 14L10 14L10 13L9 13L9 11L10 11L10 10L12 10L12 8L14 8L14 10L13 10L13 11L14 11L14 10L15 10L15 9L16 9L16 7L17 7L17 9L19 9L19 8L21 8L21 9L20 9L20 12L19 12L19 11L18 11L18 10L16 10L16 11L15 11L15 12L17 12L17 17L18 17L18 14L19 14L19 13L21 13L21 15L23 15L23 12L25 12L25 14L24 14L24 16L25 16L25 18L27 18L27 20L28 20L28 19L29 19L29 16L28 16L28 15L29 15L29 12L28 12L28 11L29 11L29 9L28 9L28 10L26 10L26 9L27 9L27 8L26 8L26 9L25 9L25 10L23 10L23 8L21 8L21 6L20 6L20 3L18 3L18 4L19 4L19 5L17 5L17 3L16 3L16 1L17 1L17 0L16 0L16 1L15 1L15 0L12 0L12 1L10 1L10 0ZM19 0L19 2L21 2L21 1L20 1L20 0ZM13 1L13 2L14 2L14 1ZM11 2L11 3L12 3L12 4L11 4L11 5L10 5L10 6L9 6L9 7L10 7L10 6L11 6L11 8L12 8L12 6L13 6L13 7L14 7L14 6L15 6L15 7L16 7L16 6L17 6L17 7L18 7L18 8L19 8L19 7L20 7L20 6L19 6L19 7L18 7L18 6L17 6L17 5L16 5L16 6L15 6L15 5L14 5L14 4L13 4L13 3L12 3L12 2ZM13 5L13 6L14 6L14 5ZM9 8L9 9L8 9L8 11L9 11L9 10L10 10L10 8ZM1 9L1 10L3 10L3 11L4 11L4 14L3 14L3 13L2 13L2 14L3 14L3 15L4 15L4 16L5 16L5 15L6 15L6 16L7 16L7 15L9 15L9 16L10 16L10 17L8 17L8 18L10 18L10 17L11 17L11 16L12 16L12 15L11 15L11 16L10 16L10 14L9 14L9 13L8 13L8 12L7 12L7 11L6 11L6 10L7 10L7 9L4 9L4 10L3 10L3 9ZM21 9L21 10L22 10L22 9ZM4 10L4 11L5 11L5 10ZM25 10L25 12L26 12L26 17L27 17L27 18L28 18L28 17L27 17L27 14L28 14L28 13L27 13L27 11L26 11L26 10ZM5 12L5 14L6 14L6 15L7 15L7 14L8 14L8 13L7 13L7 12ZM18 12L18 13L19 13L19 12ZM6 13L6 14L7 14L7 13ZM13 14L13 15L14 15L14 14ZM1 16L1 17L2 17L2 18L1 18L1 19L2 19L2 20L3 20L3 19L6 19L6 18L7 18L7 17L6 17L6 18L5 18L5 17L2 17L2 16ZM19 16L19 17L20 17L20 18L21 18L21 17L22 17L22 20L20 20L20 21L19 21L19 23L17 23L17 27L16 27L16 28L15 28L15 29L21 29L21 27L22 27L22 26L21 26L21 25L24 25L24 26L23 26L23 27L26 27L26 26L28 26L28 27L27 27L27 29L29 29L29 28L28 28L28 27L29 27L29 24L28 24L28 23L29 23L29 21L26 21L26 22L25 22L25 20L26 20L26 19L25 19L25 20L24 20L24 19L23 19L23 16ZM2 18L2 19L3 19L3 18ZM18 18L18 19L17 19L17 22L18 22L18 20L19 20L19 18ZM15 19L15 20L16 20L16 19ZM10 20L10 21L9 21L9 24L10 24L10 25L11 25L11 24L12 24L12 23L10 23L10 22L11 22L11 21L12 21L12 20ZM21 21L21 24L24 24L24 21ZM13 22L13 23L14 23L14 22ZM22 22L22 23L23 23L23 22ZM26 22L26 24L25 24L25 26L26 26L26 25L27 25L27 22ZM19 23L19 24L18 24L18 25L19 25L19 26L18 26L18 27L19 27L19 26L20 26L20 27L21 27L21 26L20 26L20 23ZM22 28L22 29L23 29L23 28ZM24 28L24 29L26 29L26 28ZM0 0L0 7L7 7L7 0ZM1 1L1 6L6 6L6 1ZM2 2L2 5L5 5L5 2ZM22 0L22 7L29 7L29 0ZM23 1L23 6L28 6L28 1ZM24 2L24 5L27 5L27 2ZM0 22L0 29L7 29L7 22ZM1 23L1 28L6 28L6 23ZM2 24L2 27L5 27L5 24Z" fill="#000000"/></g></g></svg>
