<?xml version="1.0" encoding="UTF-8"?>
<svg xmlns="http://www.w3.org/2000/svg" version="1.1" width="300" height="300" viewBox="0 0 300 300"><rect x="0" y="0" width="300" height="300" fill="#ffffff"/><g transform="scale(10.345)"><g transform="translate(0,0)"><path fill-rule="evenodd" d="M10 0L10 2L11 2L11 0ZM12 0L12 1L13 1L13 2L12 2L12 4L13 4L13 3L14 3L14 4L18 4L18 3L14 3L14 2L16 2L16 0L15 0L15 1L14 1L14 0ZM19 0L19 1L17 1L17 2L19 2L19 1L20 1L20 3L21 3L21 0ZM8 1L8 2L9 2L9 1ZM8 3L8 4L9 4L9 5L8 5L8 7L9 7L9 8L6 8L6 9L5 9L5 8L0 8L0 9L1 9L1 10L3 10L3 11L4 11L4 10L3 10L3 9L5 9L5 10L6 10L6 11L9 11L9 9L10 9L10 11L11 11L11 9L12 9L12 10L13 10L13 11L12 11L12 13L13 13L13 12L14 12L14 13L18 13L18 12L14 12L14 11L18 11L18 10L21 10L21 9L22 9L22 10L23 10L23 11L19 11L19 14L20 14L20 15L18 15L18 14L17 14L17 15L18 15L18 16L15 16L15 15L16 15L16 14L15 14L15 15L14 15L14 16L15 16L15 17L12 17L12 15L13 15L13 14L11 14L11 16L10 16L10 17L9 17L9 18L10 18L10 19L11 19L11 17L12 17L12 18L13 18L13 19L12 19L12 21L13 21L13 20L14 20L14 21L18 21L18 22L19 22L19 24L20 24L20 25L19 25L19 27L20 27L20 28L17 28L17 27L18 27L18 26L15 26L15 25L12 25L12 23L13 23L13 22L11 22L11 21L10 21L10 20L9 20L9 21L8 21L8 23L9 23L9 24L8 24L8 29L11 29L11 28L9 28L9 26L11 26L11 25L12 25L12 26L13 26L13 27L12 27L12 29L13 29L13 28L14 28L14 29L15 29L15 28L14 28L14 27L16 27L16 28L17 28L17 29L20 29L20 28L21 28L21 29L22 29L22 28L21 28L21 25L23 25L23 26L22 26L22 27L23 27L23 28L24 28L24 29L27 29L27 28L28 28L28 26L29 26L29 25L27 25L27 24L28 24L28 23L27 23L27 22L29 22L29 20L28 20L28 19L27 19L27 16L28 16L28 15L27 15L27 14L25 14L25 13L27 13L27 12L28 12L28 11L27 11L27 12L26 12L26 11L25 11L25 9L26 9L26 8L25 8L25 9L24 9L24 8L23 8L23 9L22 9L22 8L21 8L21 6L20 6L20 9L19 9L19 6L18 6L18 8L17 8L17 5L15 5L15 6L14 6L14 8L15 8L15 9L12 9L12 7L13 7L13 5L11 5L11 6L10 6L10 4L11 4L11 3ZM19 4L19 5L21 5L21 4ZM9 6L9 7L10 7L10 6ZM11 6L11 7L12 7L12 6ZM15 6L15 8L16 8L16 6ZM10 8L10 9L11 9L11 8ZM27 8L27 9L28 9L28 10L29 10L29 9L28 9L28 8ZM6 9L6 10L8 10L8 9ZM15 9L15 10L17 10L17 9ZM0 11L0 13L1 13L1 14L2 14L2 12L1 12L1 11ZM23 11L23 12L20 12L20 14L21 14L21 15L20 15L20 17L21 17L21 18L22 18L22 19L20 19L20 18L19 18L19 19L18 19L18 18L17 18L17 17L15 17L15 18L16 18L16 19L14 19L14 20L16 20L16 19L17 19L17 20L18 20L18 21L19 21L19 22L20 22L20 20L22 20L22 19L23 19L23 20L24 20L24 19L25 19L25 21L26 21L26 20L27 20L27 19L26 19L26 17L25 17L25 16L27 16L27 15L24 15L24 14L21 14L21 13L25 13L25 11ZM5 12L5 13L4 13L4 14L3 14L3 15L2 15L2 16L1 16L1 17L0 17L0 21L1 21L1 18L3 18L3 19L2 19L2 20L3 20L3 21L4 21L4 20L3 20L3 19L7 19L7 18L8 18L8 17L7 17L7 16L8 16L8 14L9 14L9 15L10 15L10 13L11 13L11 12L9 12L9 13L8 13L8 14L5 14L5 13L7 13L7 12ZM28 13L28 14L29 14L29 13ZM4 14L4 15L5 15L5 14ZM6 15L6 16L4 16L4 17L3 17L3 16L2 16L2 17L3 17L3 18L4 18L4 17L6 17L6 18L7 18L7 17L6 17L6 16L7 16L7 15ZM23 15L23 16L24 16L24 15ZM18 16L18 17L19 17L19 16ZM22 17L22 18L25 18L25 17ZM28 17L28 18L29 18L29 17ZM19 19L19 20L20 20L20 19ZM5 20L5 21L7 21L7 20ZM21 21L21 24L24 24L24 21ZM10 22L10 25L11 25L11 22ZM15 22L15 23L14 23L14 24L16 24L16 25L18 25L18 24L16 24L16 23L17 23L17 22ZM22 22L22 23L23 23L23 22ZM25 23L25 25L24 25L24 26L25 26L25 25L26 25L26 24L27 24L27 23ZM26 27L26 28L27 28L27 27ZM0 0L0 7L7 7L7 0ZM1 1L1 6L6 6L6 1ZM2 2L2 5L5 5L5 2ZM22 0L22 7L29 7L29 0ZM23 1L23 6L28 6L28 1ZM24 2L24 5L27 5L27 2ZM0 22L0 29L7 29L7 22ZM1 23L1 28L6 28L6 23ZM2 24L2 27L5 27L5 24Z" fill="#000000"/></g></g></svg>
